<svg width="17" height="18" viewBox="0 0 17 18" fill="none" xmlns="http://www.w3.org/2000/svg">
<path d="M8.5 1.63965L6.91667 6.47298C6.83559 6.724 6.69609 6.95218 6.50964 7.13878C6.32319 7.32537 6.09512 7.46505 5.84417 7.54632L1 9.13965L5.83333 10.723C6.08435 10.8041 6.31253 10.9436 6.49913 11.13C6.68572 11.3165 6.8254 11.5445 6.90667 11.7955L8.5 16.6396L10.0833 11.8063C10.1644 11.5553 10.3039 11.3271 10.4904 11.1405C10.6768 10.9539 10.9049 10.8143 11.1558 10.733L16 9.13965L11.1667 7.55632C10.9157 7.47524 10.6875 7.33574 10.5009 7.14929C10.3143 6.96284 10.1746 6.73477 10.0933 6.48381L8.5 1.63965Z" fill="#BC87FE" stroke="#BC87FE" stroke-width="1.66667" stroke-linecap="round" stroke-linejoin="round"/>
</svg>
