<?xml version="1.0" encoding="UTF-8"?>
<svg width="29px" height="29px" viewBox="0 0 29 29" version="1.1" xmlns="http://www.w3.org/2000/svg">
    <title>Group</title>
    <g id="Knowt-Mobile-Teacher-Platform" stroke="none" stroke-width="1" fill="none" fill-rule="evenodd">
        <g id="Apple-Sign-in" transform="translate(-202.000000, -612.000000)">
            <g id="Sign-in-with-Appple" transform="translate(187.000000, 604.000000)">
                <g id="Group" transform="translate(15.000000, 8.000000)">
                    <rect id="Rectangle" x="0" y="0" width="29" height="29"></rect>
                    <path d="M22.6017894,20.9239834 C22.2606641,21.7275393 21.8568826,22.4672078 21.3890532,23.1472495 C20.7513568,24.0743188 20.2292259,24.7160283 19.8268368,25.072376 C19.2030645,25.6572963 18.5347367,25.9568549 17.8190688,25.9738918 C17.3052921,25.9738918 16.6856964,25.8248216 15.9644594,25.5224248 C15.2408557,25.2214443 14.5758694,25.072376 13.9678302,25.072376 C13.3301342,25.072376 12.6462119,25.2214443 11.9146716,25.5224248 C11.1820167,25.8248216 10.5918001,25.9824103 10.1405394,25.9980272 C9.45425027,26.0278408 8.77018949,25.7197638 8.0873808,25.072376 C7.65157584,24.6847945 7.10647114,24.0203698 6.45345881,23.0791017 C5.75282882,22.0739485 5.17681382,20.9083666 4.72555331,19.5795181 C4.24226883,18.1441911 4,16.754295 4,15.4086943 C4,13.8673152 4.32664522,12.5378987 4.98091022,11.423852 C5.49510488,10.5290093 6.17916616,9.82312926 7.03532148,9.3049348 C7.89147756,8.78674111 8.81655461,8.5226751 9.81278093,8.50578018 C10.3578853,8.50578018 11.072718,8.67770709 11.9610368,9.01559818 C12.8468495,9.35462494 13.4156244,9.52655185 13.6649939,9.52655185 C13.8514294,9.52655185 14.4832776,9.32552054 15.5544122,8.92473695 C16.5673469,8.55305679 17.4222492,8.39915969 18.122601,8.45978125 C20.0203736,8.61594948 21.4461394,9.37875988 22.3943296,10.7530391 C20.6970557,11.8016371 19.8574688,13.270327 19.8741768,15.154424 C19.8894927,16.621978 20.4116236,17.8432124 21.4377851,18.812875 C21.9028296,19.2629224 22.4221764,19.6107514 23,19.8577813 C22.8746903,20.2283254 22.7424171,20.583253 22.6017894,20.9239834 Z M18.2493053,3.46013096 C18.2493053,4.61039356 17.8371692,5.68439048 17.0156835,6.6784709 C16.0243299,7.86023806 14.8252392,8.54311826 13.5249236,8.43536249 C13.5083549,8.29736646 13.4987475,8.15213041 13.4987475,7.99951176 C13.4987475,6.89526088 13.9701972,5.7134943 14.8074173,4.74723958 C15.2253999,4.2580079 15.7569991,3.85121838 16.4016571,3.52671466 C17.0449224,3.20705274 17.6533794,3.03027281 18.2256345,3 C18.2423439,3.15377214 18.2493053,3.30755396 18.2493053,3.46011604 L18.2493053,3.46013096 Z" id="path4" fill="#FFFFFF" fill-rule="nonzero"></path>
                </g>
            </g>
        </g>
    </g>
</svg>