<svg width="31" height="27" viewBox="0 0 31 27" fill="none" xmlns="http://www.w3.org/2000/svg">
<g clip-path="url(#clip0_3825_3079)">
<path d="M13.4764 21.7222H17.5264V25.7169H13.4764V21.7222Z" fill="#B3B9BC"/>
<path d="M29.5995 21.725H1.40047C0.903594 21.725 0.5 21.3622 0.5 20.9145V1.28259C0.5 0.835402 0.903125 0.472168 1.40047 0.472168H29.6C30.0969 0.472168 30.5005 0.83498 30.5005 1.28259V20.9154C30.4995 21.3622 30.0964 21.725 29.5995 21.725Z" fill="#4AABF4"/>
<path d="M30.5 17.7773V20.9152C30.5 21.3633 30.0978 21.7257 29.5995 21.7257H1.40328C0.905472 21.7257 0.502815 21.3637 0.502815 20.9152V17.7773H30.5Z" fill="#D4D9DD"/>
<path d="M15.5 20.6174C16.0336 20.6174 16.4661 20.2281 16.4661 19.7479C16.4661 19.2677 16.0336 18.8784 15.5 18.8784C14.9664 18.8784 14.5339 19.2677 14.5339 19.7479C14.5339 20.2281 14.9664 20.6174 15.5 20.6174Z" fill="#40474C"/>
<path d="M21.065 25.7188C21.065 26.1659 20.6623 26.5283 20.1655 26.5283H10.8392C10.3372 26.5283 9.935 26.1659 9.935 25.7188C9.935 25.2716 10.3377 24.9092 10.8392 24.9092H20.1655C20.6623 24.9092 21.065 25.2716 21.065 25.7188Z" fill="#D4D9DD"/>
</g>
<defs>
<clipPath id="clip0_3825_3079">
<rect width="30" height="27" fill="white" transform="translate(0.5)"/>
</clipPath>
</defs>
</svg>
