<svg width="123" height="130" viewBox="0 0 123 130" fill="none" xmlns="http://www.w3.org/2000/svg">
<path d="M59.3793 109.101C66.2734 108.637 72.1507 112.546 72.1507 112.546C72.1507 112.546 66.8505 117.207 59.9563 117.672C53.0622 118.136 47.1849 114.227 47.1849 114.227C47.1849 114.227 52.4851 109.566 59.3793 109.101Z" fill="#D3A500"/>
<path d="M70.4479 95.1382C77.2166 93.749 83.5671 96.8299 83.5671 96.8299C83.5671 96.8299 78.9434 102.163 72.1748 103.552C65.4061 104.942 59.0556 101.861 59.0556 101.861C59.0556 101.861 63.6792 96.5274 70.4479 95.1382Z" fill="#D3A500"/>
<path d="M77.4251 79.4955C83.3439 77.5592 89.3454 79.6683 89.3454 79.6683C89.3454 79.6683 85.7508 84.9169 79.8321 86.8532C73.9134 88.7895 67.9118 86.6803 67.9118 86.6803C67.9118 86.6803 71.5064 81.4318 77.4251 79.4955Z" fill="#D3A500"/>
<path d="M81.2935 60.6785C86.5939 57.4096 92.9226 58.0541 92.9226 58.0541C92.9226 58.0541 90.6576 63.9987 85.3571 67.2676C80.0567 70.5365 73.728 69.892 73.728 69.892C73.728 69.892 75.993 63.9475 81.2935 60.6785Z" fill="#D3A500"/>
<path d="M81.1 41.1642C85.7162 36.9843 92.0565 36.465 92.0565 36.465C92.0565 36.465 90.9124 42.7227 86.2962 46.9026C81.68 51.0825 75.3398 51.6017 75.3398 51.6017C75.3398 51.6017 76.4839 45.3441 81.1 41.1642Z" fill="#D3A500"/>
<path d="M73.1378 23.8365C74.96 19.792 78.951 17.6459 78.951 17.6459C78.951 17.6459 79.9878 22.0571 78.1657 26.1016C76.3436 30.1461 72.3525 32.2923 72.3525 32.2923C72.3525 32.2923 71.3157 27.881 73.1378 23.8365Z" fill="#D3A500"/>
<path d="M50.8661 101.665C51.3303 108.559 47.4214 114.436 47.4214 114.436C47.4214 114.436 42.7599 109.136 42.2957 102.242C41.8315 95.3478 45.7403 89.4704 45.7403 89.4704C45.7403 89.4704 50.4018 94.7706 50.8661 101.665Z" fill="#D3A500"/>
<path d="M60.8835 88.9288C62.2726 95.6974 59.1915 102.048 59.1915 102.048C59.1915 102.048 53.8582 97.4243 52.4691 90.6558C51.08 83.8872 54.1611 77.5367 54.1611 77.5367C54.1611 77.5367 59.4944 82.1602 60.8835 88.9288Z" fill="#D3A500"/>
<path d="M68.2272 74.9136C70.1634 80.8322 68.0541 86.8338 68.0541 86.8338C68.0541 86.8338 62.8056 83.2393 60.8694 77.3207C58.9332 71.402 61.0425 65.4005 61.0425 65.4005C61.0425 65.4005 66.291 68.9949 68.2272 74.9136Z" fill="#D3A500"/>
<path d="M71.2774 58.3788C74.5462 63.6792 73.9016 70.0078 73.9016 70.0078C73.9016 70.0078 67.957 67.7429 64.6882 62.4426C61.4193 57.1422 62.064 50.8136 62.064 50.8136C62.064 50.8136 68.0085 53.0785 71.2774 58.3788Z" fill="#D3A500"/>
<path d="M70.8341 40.7276C75.014 45.3437 75.5331 51.6838 75.5331 51.6838C75.5331 51.6838 69.2754 50.5399 65.0955 45.9238C60.9157 41.3077 60.3965 34.9676 60.3965 34.9676C60.3965 34.9676 66.6543 36.1115 70.8341 40.7276Z" fill="#D3A500"/>
<path d="M66.3149 26.4778C70.3594 28.2998 72.5055 32.2908 72.5055 32.2908C72.5055 32.2908 68.0942 33.3277 64.0497 31.5057C60.0052 29.6836 57.8591 25.6926 57.8591 25.6926C57.8591 25.6926 62.2704 24.6557 66.3149 26.4778Z" fill="#D3A500"/>
<path d="M66.4294 13.3034C68.7035 17.1121 68.1795 21.6132 68.1795 21.6132C68.1795 21.6132 63.9686 19.9391 61.6946 16.1304C59.4205 12.3217 59.9445 7.82062 59.9445 7.82062C59.9445 7.82062 64.1554 9.49468 66.4294 13.3034Z" fill="#D3A500"/>
<path d="M48.3983 114.801C50.6617 113.793 52.891 112.642 55.0714 111.34C56.2013 110.665 57.3015 109.96 58.3728 109.226C58.7787 109.169 59.1915 109.124 59.61 109.096C66.5039 108.632 72.381 112.541 72.381 112.541C72.3386 112.578 67.053 117.204 60.1867 117.667C54.9777 118.018 50.3498 115.871 48.3983 114.801ZM73.3157 94.8018C79.0081 94.5041 83.796 96.8256 83.796 96.8256C83.7537 96.8744 79.1413 102.165 72.4038 103.548C69.9119 104.059 67.4768 103.963 65.3943 103.64C68.3446 100.924 70.9895 97.9607 73.3157 94.8018ZM81.8542 78.7109C86.1129 78.4476 89.5751 79.664 89.5751 79.664C89.5348 79.7226 85.9476 84.9229 80.0625 86.8484C79.3795 87.0718 78.6945 87.2395 78.0187 87.3646C79.5178 84.5744 80.7986 81.6805 81.8542 78.7109ZM85.4646 58.9189C89.5262 57.6806 93.1526 58.0491 93.1526 58.0491C93.1526 58.0491 90.8869 63.9939 85.5864 67.2629C85.281 67.4512 84.9714 67.6252 84.6605 67.7884C85.1375 64.8612 85.4078 61.897 85.4646 58.9189ZM82.8705 39.9346C87.2294 36.8808 92.2666 36.4619 92.286 36.4603C92.2768 36.5101 91.1237 42.7344 86.5263 46.8975C85.957 47.413 85.3601 47.8713 84.7535 48.2813C84.3225 45.4798 83.6962 42.6913 82.8705 39.9346ZM79.182 17.6409C79.1872 17.6629 80.2136 22.0626 78.396 26.097C78.1694 26.6 77.9087 27.0735 77.6267 27.5174C77.3101 26.9478 76.9851 26.3798 76.6487 25.8163C75.9011 24.5643 75.115 23.349 74.2957 22.1689C76.2804 19.2018 79.182 17.6409 79.182 17.6409ZM60.8651 8.13627C62.0886 8.75166 64.6639 10.2725 66.3818 12.8632C64.6262 11.1698 62.7828 9.59386 60.8651 8.13627Z" fill="url(#paint0_linear_3713_56356)"/>
<defs>
<linearGradient id="paint0_linear_3713_56356" x1="65.8919" y1="29.4769" x2="38.314" y2="87.4676" gradientUnits="userSpaceOnUse">
<stop stop-color="#DFB10C"/>
<stop offset="1" stop-color="#DDAF0D"/>
</linearGradient>
</defs>
</svg>
