<svg width="123" height="130" viewBox="0 0 123 130" fill="none" xmlns="http://www.w3.org/2000/svg">
<path d="M63.6174 109.1C56.7236 108.636 50.8464 112.545 50.8464 112.545C50.8464 112.545 56.1464 117.206 63.0402 117.67C69.934 118.135 75.8112 114.226 75.8112 114.226C75.8112 114.226 70.5113 109.565 63.6174 109.1Z" fill="#D3A500"/>
<path d="M52.5509 95.1376C45.7825 93.7484 39.4322 96.8293 39.4322 96.8293C39.4322 96.8293 44.0556 102.162 50.8239 103.552C57.5923 104.941 63.9426 101.86 63.9426 101.86C63.9426 101.86 59.3192 96.5267 52.5509 95.1376Z" fill="#D3A500"/>
<path d="M45.5743 79.4951C39.6558 77.5589 33.6545 79.668 33.6545 79.668C33.6545 79.668 37.2488 84.9164 43.1673 86.8526C49.0857 88.7888 55.0871 86.6796 55.0871 86.6796C55.0871 86.6796 51.4927 81.4313 45.5743 79.4951Z" fill="#D3A500"/>
<path d="M41.7085 60.6787C36.4083 57.4099 30.0799 58.0544 30.0799 58.0544C30.0799 58.0544 32.3447 63.9988 37.6449 67.2676C42.9451 70.5364 49.2735 69.8918 49.2735 69.8918C49.2735 69.8918 47.0087 63.9475 41.7085 60.6787Z" fill="#D3A500"/>
<path d="M41.8988 41.1653C37.2829 36.9855 30.9429 36.4663 30.9429 36.4663C30.9429 36.4663 32.0868 42.7238 36.7028 46.9036C41.3187 51.0833 47.6586 51.6025 47.6586 51.6025C47.6586 51.6025 46.5147 45.345 41.8988 41.1653Z" fill="#D3A500"/>
<path d="M49.8618 23.8378C48.0398 19.7934 44.0489 17.6473 44.0489 17.6473C44.0489 17.6473 43.0121 22.0584 44.8341 26.1028C46.6561 30.1472 50.6469 32.2933 50.6469 32.2933C50.6469 32.2933 51.6838 27.8821 49.8618 23.8378Z" fill="#D3A500"/>
<path d="M72.1326 101.664C71.6683 108.558 75.5769 114.435 75.5769 114.435C75.5769 114.435 80.2383 109.135 80.7027 102.241C81.167 95.3471 77.2584 89.47 77.2584 89.47C77.2584 89.47 72.597 94.77 72.1326 101.664Z" fill="#D3A500"/>
<path d="M62.1126 88.9283C60.7234 95.6967 63.8043 102.047 63.8043 102.047C63.8043 102.047 69.1374 97.4236 70.5266 90.6552C71.9158 83.8868 68.8349 77.5365 68.8349 77.5365C68.8349 77.5365 63.5017 82.1599 62.1126 88.9283Z" fill="#D3A500"/>
<path d="M54.7695 74.9134C52.8333 80.8319 54.9424 86.8332 54.9424 86.8332C54.9424 86.8332 60.1907 83.2388 62.127 77.3204C64.0632 71.4019 61.9541 65.4005 61.9541 65.4005C61.9541 65.4005 56.7057 68.9949 54.7695 74.9134Z" fill="#D3A500"/>
<path d="M51.7187 58.3795C48.4499 63.6797 49.0944 70.0081 49.0944 70.0081C49.0944 70.0081 55.0387 67.7433 58.3075 62.4431C61.5764 57.1429 60.9319 50.8144 60.9319 50.8144C60.9319 50.8144 54.9875 53.0793 51.7187 58.3795Z" fill="#D3A500"/>
<path d="M52.1621 40.7283C47.9823 45.3443 47.463 51.6842 47.463 51.6842C47.463 51.6842 53.7205 50.5403 57.9003 45.9243C62.08 41.3084 62.5993 34.9684 62.5993 34.9684C62.5993 34.9684 56.3418 36.1124 52.1621 40.7283Z" fill="#D3A500"/>
<path d="M56.6878 26.4789C52.6435 28.3009 50.4974 32.2918 50.4974 32.2918C50.4974 32.2918 54.9085 33.3286 58.9528 31.5066C62.9972 29.6846 65.1433 25.6937 65.1433 25.6937C65.1433 25.6937 60.7322 24.6568 56.6878 26.4789Z" fill="#D3A500"/>
<path d="M56.5724 13.3053C54.2984 17.1139 54.8223 21.6148 54.8223 21.6148C54.8223 21.6148 59.033 19.9408 61.3071 16.1322C63.5811 12.3236 63.0572 7.82262 63.0572 7.82262C63.0572 7.82262 58.8465 9.49666 56.5724 13.3053Z" fill="#D3A500"/>
<path d="M74.5981 114.799C72.3351 113.792 70.1071 112.64 67.9271 111.338C66.7972 110.664 65.697 109.958 64.6257 109.225C64.219 109.168 63.8053 109.124 63.3859 109.095C56.5141 108.633 50.6525 112.515 50.6153 112.54C50.6404 112.562 55.9311 117.202 62.8083 117.665C68.018 118.016 72.6472 115.869 74.5981 114.799ZM49.6833 94.8016C44.0202 94.5047 39.2516 96.8001 39.2013 96.8244C39.2308 96.8584 43.846 102.162 50.5926 103.546C53.0852 104.058 55.5209 103.963 57.6038 103.639C54.6538 100.923 52.0092 97.9602 49.6833 94.8016ZM41.1457 78.7111C36.8859 78.4471 33.4218 79.6635 33.4218 79.6635C33.424 79.6667 37.0184 84.9114 42.9348 86.8471C43.6192 87.071 44.3053 87.2394 44.9825 87.3646C43.4833 84.5743 42.2013 81.6809 41.1457 78.7111ZM37.5349 58.92C33.4972 57.6885 29.8894 58.0452 29.8461 58.0496C29.8461 58.0496 32.1106 63.9936 37.4105 67.2624C37.7167 67.4513 38.0274 67.6259 38.339 67.7895C37.862 64.8623 37.5917 61.8981 37.5349 58.92ZM40.1287 39.9365C35.7688 36.8814 30.7296 36.463 30.7124 36.4616C30.7245 36.5276 31.8812 42.7406 36.4725 46.8981C37.0424 47.4141 37.6392 47.8733 38.2464 48.2837C38.6774 45.4821 39.303 42.6933 40.1287 39.9365ZM43.8165 17.6424C43.8165 17.6424 42.7797 22.0536 44.6016 26.0979C44.8285 26.6016 45.0897 27.0758 45.372 27.5201C45.689 26.9499 46.0152 26.382 46.352 25.818C47.0992 24.5665 47.8842 23.3513 48.7031 22.1717C46.7186 19.2038 43.8165 17.6424 43.8165 17.6424ZM62.138 8.13598C60.9157 8.75014 58.333 10.2734 56.6127 12.8715C58.371 11.1749 60.2171 9.59587 62.138 8.13598Z" fill="url(#paint0_linear_3713_56332)"/>
<defs>
<linearGradient id="paint0_linear_3713_56332" x1="57.1077" y1="29.4751" x2="84.6863" y2="87.4641" gradientUnits="userSpaceOnUse">
<stop stop-color="#DFB10C"/>
<stop offset="1" stop-color="#DDAF0D"/>
</linearGradient>
</defs>
</svg>
